<svg width="30" height="30" viewBox="0 0 30 30" fill="none" xmlns="http://www.w3.org/2000/svg">
<path d="M0.000749927 4.34199C0.000749927 3.19043 0.435336 2.08602 1.2089 1.27174C1.98247 0.457459 3.03166 0 4.12565 0H25.8751C26.9691 0 28.0183 0.457459 28.7918 1.27174C29.5654 2.08602 30 3.19043 30 4.34199V19.3416C30 20.4932 29.5654 21.5976 28.7918 22.4119C28.0183 23.2261 26.9691 23.6836 25.8751 23.6836H12.0005V22.1047C12.1804 21.8521 12.3459 21.5889 12.4969 21.3152H25.8751C26.9101 21.3152 27.7501 20.4311 27.7501 19.3416V4.34199C27.7501 3.25255 26.9101 2.36836 25.8751 2.36836H4.12565C3.09067 2.36836 2.25069 3.25255 2.25069 4.34199V10.5297C1.37373 11.0626 0.608363 11.777 0.000749927 12.6297V4.34199ZM7.12557 6.31563C6.82721 6.31563 6.54107 6.44039 6.3301 6.66247C6.11912 6.88454 6.0006 7.18574 6.0006 7.49981C6.0006 7.81387 6.11912 8.11507 6.3301 8.33715C6.54107 8.55923 6.82721 8.68399 7.12557 8.68399H22.8752C23.1735 8.68399 23.4597 8.55923 23.6707 8.33715C23.8816 8.11507 24.0002 7.81387 24.0002 7.49981C24.0002 7.18574 23.8816 6.88454 23.6707 6.66247C23.4597 6.44039 23.1735 6.31563 22.8752 6.31563H7.12557ZM16.1253 14.2102C15.827 14.2102 15.5408 14.3349 15.3299 14.557C15.1189 14.7791 15.0004 15.0803 15.0004 15.3943C15.0004 15.7084 15.1189 16.0096 15.3299 16.2317C15.5408 16.4538 15.827 16.5785 16.1253 16.5785H22.8752C23.1735 16.5785 23.4597 16.4538 23.6707 16.2317C23.8816 16.0096 24.0002 15.7084 24.0002 15.3943C24.0002 15.0803 23.8816 14.7791 23.6707 14.557C23.4597 14.3349 23.1735 14.2102 22.8752 14.2102H16.1253ZM6.0006 11.0523C4.40914 11.0523 2.88287 11.7178 1.75754 12.9024C0.632204 14.0869 0 15.6935 0 17.3688C0 19.044 0.632204 20.6506 1.75754 21.8351C2.88287 23.0197 4.40914 23.6852 6.0006 23.6852C7.59206 23.6852 9.11833 23.0197 10.2437 21.8351C11.369 20.6506 12.0012 19.044 12.0012 17.3688C12.0012 15.6935 11.369 14.0869 10.2437 12.9024C9.11833 11.7178 7.59206 11.0523 6.0006 11.0523ZM10.5005 23.6852C9.24802 24.6767 7.68956 25.2641 6.0006 25.2641C4.37786 25.2673 2.79826 24.7141 1.50071 23.6883V28.8135C1.50071 29.7134 2.40819 30.2661 3.13567 29.8698L3.27067 29.7829L6.0006 27.7761L8.73053 29.7845C8.88819 29.9004 9.07143 29.9718 9.26277 29.9919C9.4541 30.012 9.64714 29.9802 9.82346 29.8994C9.99977 29.8186 10.1535 29.6917 10.2699 29.5306C10.3863 29.3695 10.4616 29.1797 10.4885 28.9793L10.5005 28.8135V23.6852Z" fill="white"/>
</svg>
