<svg width="30" height="30" viewBox="0 0 30 30" fill="none" xmlns="http://www.w3.org/2000/svg">
<path d="M21.9764 17.5C22.3465 17.5 22.7014 17.3495 22.9631 17.0816C23.2248 16.8137 23.3718 16.4503 23.3718 16.0714C23.3718 15.6925 23.2248 15.3292 22.9631 15.0613C22.7014 14.7934 22.3465 14.6429 21.9764 14.6429C21.6063 14.6429 21.2514 14.7934 20.9897 15.0613C20.728 15.3292 20.581 15.6925 20.581 16.0714C20.581 16.4503 20.728 16.8137 20.9897 17.0816C21.2514 17.3495 21.6063 17.5 21.9764 17.5ZM21.9764 23.2143C22.3465 23.2143 22.7014 23.0638 22.9631 22.7959C23.2248 22.528 23.3718 22.1646 23.3718 21.7857C23.3718 21.4068 23.2248 21.0435 22.9631 20.7756C22.7014 20.5077 22.3465 20.3571 21.9764 20.3571C21.6063 20.3571 21.2514 20.5077 20.9897 20.7756C20.728 21.0435 20.581 21.4068 20.581 21.7857C20.581 22.1646 20.728 22.528 20.9897 22.7959C21.2514 23.0638 21.6063 23.2143 21.9764 23.2143ZM16.3947 16.0714C16.3947 16.4503 16.2477 16.8137 15.986 17.0816C15.7243 17.3495 15.3694 17.5 14.9993 17.5C14.6292 17.5 14.2743 17.3495 14.0126 17.0816C13.7509 16.8137 13.6039 16.4503 13.6039 16.0714C13.6039 15.6925 13.7509 15.3292 14.0126 15.0613C14.2743 14.7934 14.6292 14.6429 14.9993 14.6429C15.3694 14.6429 15.7243 14.7934 15.986 15.0613C16.2477 15.3292 16.3947 15.6925 16.3947 16.0714ZM16.3947 21.7857C16.3947 22.1646 16.2477 22.528 15.986 22.7959C15.7243 23.0638 15.3694 23.2143 14.9993 23.2143C14.6292 23.2143 14.2743 23.0638 14.0126 22.7959C13.7509 22.528 13.6039 22.1646 13.6039 21.7857C13.6039 21.4068 13.7509 21.0435 14.0126 20.7756C14.2743 20.5077 14.6292 20.3571 14.9993 20.3571C15.3694 20.3571 15.7243 20.5077 15.986 20.7756C16.2477 21.0435 16.3947 21.4068 16.3947 21.7857ZM8.02223 17.5C8.39232 17.5 8.74725 17.3495 9.00894 17.0816C9.27063 16.8137 9.41765 16.4503 9.41765 16.0714C9.41765 15.6925 9.27063 15.3292 9.00894 15.0613C8.74725 14.7934 8.39232 14.6429 8.02223 14.6429C7.65215 14.6429 7.29722 14.7934 7.03553 15.0613C6.77384 15.3292 6.62682 15.6925 6.62682 16.0714C6.62682 16.4503 6.77384 16.8137 7.03553 17.0816C7.29722 17.3495 7.65215 17.5 8.02223 17.5ZM8.02223 23.2143C8.39232 23.2143 8.74725 23.0638 9.00894 22.7959C9.27063 22.528 9.41765 22.1646 9.41765 21.7857C9.41765 21.4068 9.27063 21.0435 9.00894 20.7756C8.74725 20.5077 8.39232 20.3571 8.02223 20.3571C7.65215 20.3571 7.29722 20.5077 7.03553 20.7756C6.77384 21.0435 6.62682 21.4068 6.62682 21.7857C6.62682 22.1646 6.77384 22.528 7.03553 22.7959C7.29722 23.0638 7.65215 23.2143 8.02223 23.2143Z" fill="white"/>
<path fill-rule="evenodd" clip-rule="evenodd" d="M8.02223 0C8.2998 0 8.566 0.112882 8.76226 0.313814C8.95853 0.514746 9.06879 0.787268 9.06879 1.07143V2.16143C9.99256 2.14286 11.0098 2.14286 12.1289 2.14286H17.8683C18.9888 2.14286 20.006 2.14286 20.9298 2.16143V1.07143C20.9298 0.787268 21.0401 0.514746 21.2363 0.313814C21.4326 0.112882 21.6988 0 21.9764 0C22.2539 0 22.5201 0.112882 22.7164 0.313814C22.9127 0.514746 23.0229 0.787268 23.0229 1.07143V2.25286C23.3857 2.28143 23.7295 2.31762 24.0541 2.36143C25.6896 2.58714 27.0138 3.06143 28.059 4.13C29.1027 5.2 29.566 6.55571 29.7865 8.23C30 9.85857 30 11.9371 30 14.5629V17.58C30 20.2057 30 22.2857 29.7865 23.9129C29.566 25.5871 29.1027 26.9429 28.059 28.0129C27.0138 29.0814 25.6896 29.5557 24.0541 29.7814C22.4634 30 20.433 30 17.8683 30H12.1317C9.56696 30 7.53523 30 5.94586 29.7814C4.31043 29.5557 2.98619 29.0814 1.94102 28.0129C0.897251 26.9429 0.433974 25.5871 0.213498 23.9129C0 22.2843 0 20.2057 0 17.58V14.5629C0 11.9371 0 9.85714 0.213498 8.23C0.433974 6.55571 0.897251 5.2 1.94102 4.13C2.98619 3.06143 4.31043 2.58714 5.94586 2.36143C6.27145 2.31762 6.61519 2.28143 6.97707 2.25286V1.07143C6.97707 0.787515 7.08714 0.51521 7.28311 0.314319C7.47907 0.113428 7.74491 0.000378551 8.02223 0ZM6.22215 4.48571C4.81976 4.67857 4.01042 5.04143 3.42016 5.64571C2.8299 6.25 2.47546 7.07857 2.28708 8.51429C2.25545 8.75714 2.22848 9.01381 2.20615 9.28429H27.7925C27.7701 9.01381 27.7432 8.75667 27.7115 8.51286C27.5231 7.07714 27.1687 6.24857 26.5784 5.64429C25.9882 5.04 25.1788 4.67714 23.7751 4.48429C22.342 4.28714 20.4512 4.28429 17.7901 4.28429H12.2085C9.54742 4.28429 7.65803 4.28857 6.22215 4.48571ZM2.09173 14.6429C2.09173 13.4229 2.09173 12.3614 2.10987 11.4286H27.8887C27.9069 12.3614 27.9069 13.4229 27.9069 14.6429V17.5C27.9069 20.2243 27.9041 22.16 27.7115 23.6286C27.5231 25.0643 27.1687 25.8929 26.5784 26.4971C25.9882 27.1014 25.1788 27.4643 23.7751 27.6571C22.342 27.8543 20.4512 27.8571 17.7901 27.8571H12.2085C9.54742 27.8571 7.65803 27.8543 6.22215 27.6571C4.81976 27.4643 4.01042 27.1014 3.42016 26.4971C2.8299 25.8929 2.47546 25.0643 2.28708 23.6271C2.09452 22.16 2.09173 20.2243 2.09173 17.5V14.6429Z" fill="white"/>
</svg>
